<svg version="1.1" id="Layer_1" xmlns="http://www.w3.org/2000/svg" xmlns:xlink="http://www.w3.org/1999/xlink" x="0px" y="0px"
	 viewBox="0 889.8 1080 1030.2" enable-background="new 0 889.8 1080 1030.2" xml:space="preserve">
	 <style>
		.logo-shape {
			fill: var(--color-primary);
		}
	 </style>
<g id="Layer_4">
	<g>
		<path class="logo-shape" d="M1054.5,1390.2c0.8-60.1-54.9-115.8-156.8-156.9c-18.8-7.6-38.7-14.5-59.7-20.8c9.8-37,16.2-72.1,19-104.2
			c3.6-41.7,1-77.6-7.7-106.8c-9.8-32.9-27-56.7-51.2-70.8c-52.3-30.5-128.5-9.3-214.4,59.5c-15.6,12.5-31.3,26.4-46.9,41.4
			c-15.5-14.9-31-28.6-46.6-41c-86.1-69-162.3-90.3-214.4-59.9c-24.2,14.1-41.5,37.9-51.2,70.8c-8.7,29.2-11.2,65.2-7.6,106.9
			c2.6,30.2,8.5,63.1,17.3,97.7c-18.9,5.3-36.9,11-54,17.4c-102.8,38.3-159.9,92.7-160.7,153.3c-0.5,39.2,23,77.2,68,109.9
			c36.1,26.2,86.4,49.3,146.3,67.4c-5,19.8-9,39.1-12,57.8c-15.1,94.2-2.7,164.3,34.9,201.2l18.5-43.9
			c-18.4-30.5-22.9-83.1-12-150.6c15.6-97,60.3-212.5,126-325.3c15.7-27,32.2-53,49.2-77.9c32.8-2.2,66.5-3.1,100.8-2.7
			c33.3,0.4,66.1,2.2,98,5.1c16.4,24.1,32.3,49.3,47.5,75.4c19,32.6,36.5,65.9,51.9,99c25.7,54.9,45.7,108.5,59.5,159.4
			c29.2,107.8,28.5,186.2-0.3,223.2l17.3,42.1c48.2-42,58.5-133.4,28.6-256.5C976.4,1522.5,1053.6,1461.1,1054.5,1390.2z
			 M245.1,1513.6c-55-16.6-100.7-37.5-132.9-60.9c-23.3-17-51.1-43.8-50.7-75.4c0.5-41.4,49.2-83.1,133.5-114.4
			c16-6,33-11.4,50.7-16.3c13.2,42.8,30.4,87.5,51.3,132.6C275.9,1424.9,258.4,1470.2,245.1,1513.6z M353,1272.1
			c-11.2,19.2-21.8,38.6-31.8,57.9c-13.6-31.9-25.2-63.3-34.6-93.5c31-6.9,63.9-12.3,98.2-16.3C373.9,1237,363.3,1254.3,353,1272.1z
			 M415.4,1174.9c-49.5,4.2-96.7,11.3-140.3,21c-8.3-32.4-13.7-63.1-16.2-91.1c-6.1-71,7.4-120,38.1-137.8
			c16.9-9.9,39.5-10.4,67.2-1.7c29.5,9.3,64,29.4,99.8,58.1c14.4,11.6,28.9,24.3,43.3,38.2C475.9,1095.1,444.9,1133.3,415.4,1174.9z
			 M539.8,1170.6c-23.6-0.3-46.9,0-69.9,0.9c21.8-28.9,44.3-55.8,67-80.1c23.2,24.7,46.1,52.1,68.4,81.6
			C583.7,1171.7,561.9,1170.9,539.8,1170.6z M660.7,1177.9c-30.2-42.8-61.9-81.9-94.3-116.3c14.5-14,29.1-26.9,43.6-38.5
			c70.4-56.4,131.2-76.8,167-56c30.7,17.9,44.2,66.8,38.1,137.7c-2.5,29.7-8.5,62.3-17.6,96.8
			C754.9,1191.1,708.8,1183.1,660.7,1177.9z M721.1,1272c-9.5-16.3-19.3-32.3-29.3-47.9c32.8,4.6,64.3,10.6,94,17.9
			c-9.1,28.6-20.1,58.1-32.9,88.1C742.8,1310.5,732.2,1291.1,721.1,1272z M830.8,1519.7c-13.5-45.3-31.6-92.5-53.8-140.5
			c19.8-42.9,36.4-85.4,49.3-126.3c19.6,5.9,38.2,12.4,55.7,19.4c42.3,17.1,76.6,37.2,99.1,58.3c21.1,19.7,31.7,39.6,31.4,59.1
			C1011.8,1439.1,942.8,1488.1,830.8,1519.7z"/>
	</g>
</g>
<g id="Layer_3">
	<path class="logo-shape" d="M602.9,1576.3l-27-30.2l-24.8,24.8l68,68l-5.4-39.9C612.6,1591.4,609.4,1582.8,602.9,1576.3z"/>
	<path class="logo-shape" d="M676.3,1311.9h-21.6v174.8l21.6,11.9V1311.9z"/>
	<path class="logo-shape" d="M628.8,1471.7l4.3,2.2v-162H618l-17.3-17.3v130.6C600.7,1444.7,611.5,1463,628.8,1471.7z"/>
	<path class="logo-shape" d="M417.3,1311.9h-21.6v186.7l21.6-11.9V1311.9z"/>
	<path class="logo-shape" d="M471.3,1425.2v-130.5l-17.3,17.2h-15.1v163l5.4-3.2C460.5,1463,471.3,1444.7,471.3,1425.2z"/>
	<path class="logo-shape" d="M496.1,1546.1l-27,30.2c-5.4,6.5-9.7,14-10.8,22.7l-5.4,39.9l68-68L496.1,1546.1z"/>
	<path class="logo-shape" d="M490.7,1631.4c30.2-8.6,61.5-8.6,90.7,0l-45.3-45.3L490.7,1631.4z"/>
	<path class="logo-shape" d="M561.9,1529.9l-25.9-29.1l-25.9,29.1l25.9,25.9L561.9,1529.9z"/>
	<polygon class="logo-shape" points="821.9,1883.5 678.4,1524.5 661.1,1514.8 780.9,1883.5 	"/>
	<polygon class="logo-shape" points="291,1883.5 410.8,1514.6 393.5,1524.3 250.1,1883.5 	"/>
	<path class="logo-shape" d="M396.8,1883.5l39.9-286.7c2.2-13,7.6-24.8,16.2-34.5l83.1-93.9l83.1,93.9c8.6,9.7,14,21.6,16.2,34.5l39.9,286.7h83
		l-124-383.9l-16.2-8.6c-23.7-12.9-38.8-38.8-38.8-65.8v-143.6l-43.2,8.6l-43.2-8.6v142.4c0,27-15.1,52.9-38.8,65.8l-16.2,8.6
		l-124.1,385.1H396.8z M525.2,1311.9h21.6v43.2h-21.6V1311.9z M525.2,1376.7h21.6v21.6h-21.6V1376.7z"/>
</g>
</svg>
